<?xml version="1.0" encoding="UTF-8"?>
<svg id="Layer_2" data-name="Layer 2" xmlns="http://www.w3.org/2000/svg" viewBox="0 0 225.78 130.06">
  <defs>
    <style>
      .cls-1 {
        fill: #fff;
        stroke-width: 0px;
      }
    </style>
  </defs>
  <g id="Layer_51" data-name="Layer 51">
    <g>
      <path class="cls-1" d="M71.72,12.64c.16-.27.31-.51.44-.77,1.2-2.38,3-4.21,5.2-5.69,3.37-2.25,7.09-3.67,11-4.59,5.65-1.33,11.39-1.85,17.2-1.48,4.43.28,8.8.89,13.06,2.22,2.63.82,5.17,1.83,7.5,3.31,2.61,1.65,4.8,3.69,6.16,6.52.04.08.12.15.27.33.57-.06,1.24-.1,1.89-.19,1.53-.2,3.06-.46,4.6-.32.8.07,1.61.26,2.38.51.73.24,1.17.84,1.31,1.6.34,1.86.44,3.71.03,5.59-.3,1.4-1.14,2.16-2.52,2.42-1.29.24-2.59.23-3.88.06-1.24-.16-2.47-.37-3.75-.56-.12.15-.26.28-.34.44-1.25,2.59-3.2,4.54-5.56,6.13-2.74,1.84-5.77,3.06-8.93,3.95-4.85,1.36-9.79,1.99-14.82,2.06-5.18.07-10.28-.48-15.3-1.73-3.19-.79-6.25-1.94-9.08-3.63-2.78-1.66-5.12-3.75-6.55-6.73-.06-.12-.18-.22-.34-.4-.43.05-.9.11-1.37.15-1.58.14-3.16.36-4.74.39-.84.02-1.71-.22-2.54-.44-.86-.24-1.37-.89-1.51-1.77-.27-1.66-.53-3.33-.1-5.01.09-.37.21-.74.3-1.11.24-.95.92-1.49,1.81-1.66.98-.19,2.01-.35,3-.29,1.53.09,3.05.39,4.57.6.18.02.37.04.6.07ZM102.3,8.85c-2.21.15-4.42.28-6.62.46-4.06.34-7.95,1.36-11.72,2.9-1.48.6-2.87,1.36-4.13,2.34-.6.47-1.18,1-1.67,1.58-.67.78-.65,1.23.02,2.04.36.44.77.88,1.23,1.21.9.63,1.81,1.31,2.81,1.75,1.93.85,3.89,1.67,5.91,2.29,3.74,1.13,7.6,1.67,11.52,1.8,5.61.19,11.15-.24,16.58-1.8,2.46-.71,4.85-1.59,7.03-2.94.93-.58,1.82-1.26,2.6-2.03.99-.98,1-1.63.02-2.6-.82-.8-1.74-1.52-2.7-2.14-1.83-1.17-3.84-2-5.91-2.64-4.87-1.51-9.86-2.14-14.95-2.21Z"/>
      <path class="cls-1" d="M71.76,38.64c-1.63.2-3.11.43-4.59.53-1,.07-2.01-.02-3.02-.11-.42-.03-.84-.2-1.24-.36-.77-.31-1.23-.9-1.39-1.72-.35-1.81-.46-3.61-.06-5.44.29-1.31.96-2.15,2.3-2.46,1.53-.36,3.06-.25,4.59-.06,1.09.13,2.18.32,3.34.49.47-.78.94-1.55,1.44-2.38.9.33,1.35,1.13,2.04,1.6.67.47,1.31.98,1.99,1.44.71.48,1.46.91,2.26,1.4-.56.89-1.52,1.43-1.75,2.52.12.72.64,1.22,1.17,1.71,1.07.98,2.32,1.71,3.61,2.37,2.33,1.18,4.8,1.97,7.33,2.57,6.49,1.54,13.03,1.83,19.63.95,3.35-.45,6.62-1.2,9.79-2.38,1.81-.68,3.55-1.5,5.11-2.65.69-.51,1.32-1.12,1.88-1.77.51-.6.49-1.07.01-1.7-.4-.53-.88-1-1.39-1.56,1.07-.69,2.15-1.32,3.15-2.04,1.01-.73,1.94-1.57,2.99-2.42.76.54.91,1.53,1.57,2.26.85.09,1.72-.29,2.62-.34,1.44-.07,2.88-.15,4.32-.17.42,0,.85.12,1.27.23,1.13.28,1.82.95,2.07,2.14.4,1.92.33,3.83-.13,5.72-.24.96-.86,1.58-1.82,1.87-.98.3-1.98.47-2.99.36-1.53-.17-3.05-.4-4.57-.61-.23-.03-.47-.05-.68-.08-.1.1-.19.16-.23.24-1.74,3.73-4.76,6.12-8.33,7.87-4.54,2.22-9.37,3.42-14.38,4.02-3.07.36-6.14.55-9.22.45-6.14-.21-12.16-1.09-17.91-3.39-2.34-.93-4.53-2.12-6.49-3.71-1.63-1.32-2.99-2.86-3.93-4.75-.1-.21-.24-.41-.37-.63Z"/>
      <path class="cls-1" d="M203.05,74.35c-1.11.11-2.06.18-3.06-.04-.05-.27-.12-.5-.14-.73-.29-3.97-3.18-6.9-6.83-7.84-2.52-.65-5.06-.54-7.55.22-1.46.45-2.68,1.26-3.73,2.37-2.31,2.45-2.67,7.08.96,9.62,1.01.71,2.14,1.3,3.29,1.76,1.69.68,3.44,1.21,5.19,1.75,2.02.63,4.02,1.32,5.89,2.32,1.01.54,2,1.16,2.93,1.83,4.74,3.4,4.96,10.98,0,14.69-2.14,1.6-4.54,2.52-7.16,2.84-2.74.33-5.47.25-8.16-.5-1.92-.54-3.7-1.36-5.3-2.55-2.86-2.13-4.06-5.01-3.84-8.57,1.02-.39,2.01-.12,3.06-.19.07.48.15.85.18,1.22.25,2.52,1.43,4.44,3.59,5.77,1.83,1.13,3.82,1.8,5.96,1.99,1.83.16,3.66.11,5.45-.35,1.66-.42,3.16-1.16,4.4-2.36,2.67-2.58,2.62-6.74-.12-9.24-.9-.82-1.94-1.41-3.03-1.94-1.95-.94-4.02-1.58-6.08-2.25-1.82-.59-3.63-1.26-5.41-1.98-1.39-.56-2.65-1.36-3.81-2.31-2.48-2.03-3.38-4.7-3.15-7.82.24-3.22,1.91-5.58,4.53-7.33,1.71-1.14,3.6-1.81,5.63-2.1,2.7-.39,5.38-.37,8,.44,3.54,1.08,6.22,3.2,7.66,6.7.59,1.43.89,2.92.63,4.59Z"/>
      <path class="cls-1" d="M14.38,63.05h3.28c4.79,13.14,9.58,26.27,14.4,39.48-1.2.38-2.28.2-3.45.16-1.48-3.6-2.58-7.33-4.03-10.95H7.4c-1.41,3.58-2.59,7.28-4.03,10.91-1.16.16-2.24.2-3.37-.04.03-.24.03-.43.09-.6,4.75-12.95,9.5-25.91,14.29-38.95ZM16.03,68.1c-.13.22-.23.34-.27.47-2.33,6.4-4.66,12.81-6.98,19.22-.07.2-.05.45-.06.66,1.1.18,11.42.29,13.89.15.22-.01.44-.08.66-.12-.19-1.16-6.46-18.81-7.24-20.38Z"/>
      <path class="cls-1" d="M153.22,91.73h-17.19c-1.42,3.62-2.61,7.33-4.05,10.93-1.17.11-2.26.21-3.47-.1,4.82-13.21,9.67-26.32,14.5-39.49h3.14c.69,1.3,14.17,38.31,14.39,39.52-1.08.28-2.16.18-3.33.07-1.41-3.58-2.57-7.24-3.99-10.94ZM137.27,88.49c.34.05.57.11.8.11,4.33,0,8.66,0,12.99,0,.27,0,.53-.09.81-.13,0-.24.04-.39,0-.51-2.32-6.52-4.65-13.04-6.99-19.55-.03-.07-.15-.11-.22-.16-.55.96-6.93,18.4-7.38,20.25Z"/>
      <path class="cls-1" d="M55.87,66.05c-1.63-.21-3.16-.08-4.68-.1-1.49-.02-2.98,0-4.47,0-1.53,0-3.06.03-4.61-.03-.32-.98-.24-1.86-.1-2.73,1.16-.23,29.17-.26,30.69-.04.19.86.17,1.74,0,2.74-.57.02-1.08.06-1.6.06-3.42,0-6.83,0-10.25,0-.47,0-.94.04-1.47.07-.19,1.81-.06,3.54-.09,5.26-.02,1.73,0,3.46,0,5.19v15.73c0,1.73,0,3.46,0,5.19-.01,1.72.06,3.44-.05,5.25-1.08.19-2.07.13-3.15.04-.05-.32-.14-.63-.15-.95-.03-.58,0-1.15,0-1.73,0-10.73,0-21.45,0-32.18,0-.57-.03-1.13-.04-1.76Z"/>
      <path class="cls-1" d="M90.27,63.05h3.05c.39.45.25.95.25,1.42.01,3.37,0,6.74,0,10.11,0,7.75,0,15.5,0,23.25,0,.57,0,1.14,0,1.7.61.38,1.2.27,1.76.27,5.01,0,10.01,0,15.02,0,.82,0,1.64-.01,2.46,0,.37,0,.74.08,1.14.13.18.93.18,1.77.02,2.6-.2.08-.33.17-.46.17-7.56.01-15.12.02-22.68.02-.18,0-.36-.08-.6-.14-.04-.3-.11-.57-.12-.85-.17-4.67-.06-37.25.15-38.7Z"/>
      <path class="cls-1" d="M224.39,58.59h1.18c.11.14.21.22.21.29,0,2.4,0,4.79,0,7.19,0,.04-.05.08-.14.22-.19.03-.45.07-.72.11-.09-.16-.22-.28-.22-.4-.03-.96-.04-1.92-.05-2.88,0-.46,0-.93-.22-1.45-.11.18-.23.35-.31.55-.47,1.15-.93,2.32-1.4,3.47-.17.41-.37.8-1.09.64-.89-1.46-1.28-3.26-2.32-4.81v4.73c-.41.05-.72.08-1,.11-.3-1.08-.35-6.09-.1-7.63.08-.05.15-.14.24-.15.33-.02.66,0,1.09,0,.9,1.84,1.48,3.82,2.4,5.83.5-.62.62-1.27.87-1.85.28-.66.53-1.34.8-2.01.25-.62.51-1.24.8-1.97Z"/>
      <path class="cls-1" d="M134.99,127.85c.65-2.55,1.22-4.78,1.79-7.01.02-.09.09-.16.17-.3h.89c-.8,3.14-1.57,6.15-2.35,9.2-.29.04-.52.06-.83.1-.95-2.32-1.36-4.79-2.35-7.32-.63,1.33-.85,2.55-1.22,3.71-.36,1.15-.71,2.29-1.07,3.48-.25.05-.48.09-.76.14-.12-.23-.26-.43-.31-.65-.56-2.14-1.11-4.28-1.66-6.43-.18-.69-.35-1.39-.55-2.16.29-.08.5-.14.76-.22.68,1.14.75,2.41,1.08,3.59.34,1.19.62,2.4.99,3.85.92-2.56,1.41-5,2.28-7.35.29-.01.52-.02.84-.04.87,2.35,1.39,4.79,2.3,7.4Z"/>
      <path class="cls-1" d="M119.18,125.63h.53c.06.13.19.27.17.37-.18.79-.39,1.56-.63,2.53.18.26.47.67.76,1.1-.74.52-1.09-.11-1.59-.45-.32.16-.65.35-.99.5-.91.4-1.85.48-2.81.16-1.74-.58-2.33-2.51-1.19-3.95.32-.41.75-.73,1.18-1.14-.18-.33-.35-.61-.47-.9-.15-.35-.32-.71-.37-1.08-.24-1.65,1.01-2.81,2.64-2.49,1.57.31,2.17,1.99,1.1,3.2-.41.46-.91.84-1.37,1.25.58,1.07,1.39,2,2.31,2.67.59-.4.4-1.13.72-1.76ZM115.17,125.28c-.47.56-.87.91-1.12,1.36-.54.97-.08,2.16.98,2.43,1,.26,1.96.15,2.8-.75-.87-1-1.68-1.93-2.66-3.04ZM115.45,124.03c.66-.35,1.23-.69,1.55-1.32.28-.55.07-1.24-.43-1.49-.81-.4-1.72.08-1.84.99-.08.66.16,1.22.72,1.82Z"/>
      <path class="cls-1" d="M172.72,127.57v-6.98c.28-.05.49-.1.67-.13.36.44.44,7.17.14,9.21-.44.28-.81.17-1.09-.24-.39-.55-.75-1.12-1.12-1.68-.98-1.48-1.96-2.96-2.95-4.44-.18-.27-.38-.52-.74-1-.23,2.62.04,4.99-.18,7.38-.24.04-.42.07-.57.09-.1-.11-.2-.17-.21-.25-.04-.28-.08-.57-.08-.86,0-2.4,0-4.81,0-7.21,0-.28.03-.57.05-.85.41-.28.76-.27,1.05.07.25.29.45.62.66.94,1.17,1.76,2.34,3.52,3.52,5.28.18.27.39.51.58.76.09-.04.17-.08.26-.11Z"/>
      <path class="cls-1" d="M43.08,125.19c-.1.72-.14,1.44-.31,2.14-.41,1.65-1.75,2.68-3.46,2.71-1.7.03-3.09-.95-3.54-2.6-.41-1.51-.41-3.05,0-4.55.45-1.69,1.79-2.66,3.5-2.65,1.75.01,3.12,1.08,3.53,2.82.16.7.2,1.42.3,2.14ZM36.38,125.09c.12.77.15,1.55.36,2.28.35,1.18,1.29,1.8,2.49,1.81,1.21,0,2.16-.62,2.52-1.78.47-1.5.48-3.05-.01-4.55-.36-1.08-1.29-1.77-2.56-1.73-1.23.04-2.11.62-2.46,1.84-.2.68-.24,1.41-.35,2.13Z"/>
      <path class="cls-1" d="M26.85,125.82v3.88c-.29.05-.46.07-.6.1-.1-.11-.21-.17-.22-.24-.05-.23-.08-.47-.08-.71,0-2.5,0-5,0-7.5,0-.23.04-.47.08-.78.3-.06.57-.15.84-.16.96,0,1.92-.01,2.88.04,1.07.06,1.97.46,2.39,1.55.43,1.11.2,2.07-.67,2.88-.1.09-.18.21-.31.38,1.01.66,1.25,1.63,1.21,2.75-.02.55.11,1.11.18,1.71-.48.2-.87.1-1-.42-.12-.51-.13-1.04-.16-1.57-.07-1.38-.54-1.92-1.9-2.03-.57-.05-1.15-.04-1.73-.03-.23,0-.46.07-.9.14ZM26.95,124.82c.93,0,1.69.02,2.45-.01.32-.01.66-.1.96-.23.71-.31,1.09-.96,1-1.72-.08-.72-.43-1.26-1.16-1.47-1.07-.29-2.14-.3-3.25-.05v3.48Z"/>
      <path class="cls-1" d="M56.73,125.78c-.25,1.34.05,2.65-.21,3.95-.24.02-.42.04-.64.05-.07-.2-.16-.38-.17-.56-.14-2.36-.05-7.59.17-8.75,1.44-.15,2.93-.26,4.38.09,1.75.43,2.39,2.45,1.32,3.92-.17.23-.39.42-.61.65.32.44.74.85.92,1.35.19.52.13,1.13.21,1.7.06.47.14.94.22,1.42-.66.23-.91.17-1.04-.35-.09-.37-.1-.76-.13-1.14-.03-.34,0-.68-.05-1.01-.14-.73-.58-1.23-1.32-1.35-.99-.16-1.99-.19-3.04,0ZM56.7,124.78c1.07,0,1.98.08,2.87-.02,1-.11,1.56-.83,1.56-1.75,0-.9-.46-1.48-1.44-1.69-.98-.21-1.97-.24-2.99.02v3.44Z"/>
      <path class="cls-1" d="M185.5,127.21c.23-.03.37-.05.48-.06.11.07.23.1.26.17.67,1.52,1.7,2.11,3.28,1.82.32-.06.65-.19.93-.36.95-.6,1.03-1.75.11-2.39-.54-.38-1.21-.57-1.82-.84-.7-.31-1.44-.54-2.1-.93-.89-.53-1.13-1.4-.93-2.38.14-.7.6-1.2,1.22-1.53,1.23-.65,2.49-.66,3.73-.02.88.46,1.31,1.22,1.39,2.29-.22.07-.43.13-.71.21-.11-.26-.2-.47-.3-.67-.64-1.32-2.08-1.83-3.39-1.2-.61.29-1.01.74-1.02,1.44-.02.66.36,1.09.91,1.35.56.27,1.17.43,1.74.67.62.26,1.27.47,1.82.84,1.52,1.03,1.41,2.97-.18,3.9-1.34.78-3.44.64-4.63-.33-.59-.48-.74-.84-.79-1.99Z"/>
      <path class="cls-1" d="M194.74,127.25c.26-.06.44-.1.67-.16.1.18.23.33.26.5.33,1.6,2.87,1.94,4.01,1.26,1.06-.63,1.14-1.92.09-2.57-.56-.35-1.23-.53-1.84-.79-.57-.24-1.19-.41-1.72-.73-1.64-1-1.66-3-.02-3.99,1.29-.78,2.66-.77,3.97,0,.78.47,1.26,1.17,1.19,2.23-.21.05-.42.09-.64.14-.1-.16-.19-.27-.24-.4-.61-1.39-1.52-1.91-2.96-1.59-.36.08-.73.27-1.01.51-.76.65-.73,1.63.08,2.22.42.3.93.47,1.42.68.71.3,1.44.53,2.13.85.97.45,1.44,1.23,1.35,2.32-.09,1.11-.81,1.7-1.77,2.05-.98.36-1.98.33-2.97,0-1.22-.41-1.68-.96-1.99-2.53Z"/>
      <path class="cls-1" d="M69.09,120.46c1.12,3.06,2.22,6.08,3.36,9.19-.28.09-.48.15-.7.21-.71-.71-.65-1.74-1.25-2.52-1.2-.17-2.44-.07-3.79-.05-.32.79-.64,1.58-.99,2.44h-.92c1.07-3.16,2.23-6.15,3.35-9.21.3-.02.56-.04.93-.07ZM67.05,126.22c1.1.22,2.06.27,3.03-.01-.43-1.95-.97-3.33-1.6-4-.48,1.34-.94,2.64-1.43,4.01Z"/>
      <path class="cls-1" d="M11.24,129.76h-.7c-.28-1.09-.3-7.85-.03-9.22.16-.02.33-.04.57-.06.43,1.37-.01,2.78.3,4.2,1.59.22,3.16.05,4.83.11.38-1.4,0-2.81.28-4.25.23-.01.44-.02.64-.03.24,1.12.29,7.36.08,9.19-.18.03-.39.06-.65.1-.37-1.36,0-2.72-.25-4-1.2-.29-3.68-.29-5.01,0-.02,1.24-.04,2.52-.07,3.96Z"/>
      <path class="cls-1" d="M47.18,126.03c-.03,1.34-.06,2.48-.09,3.69h-.72c-.23-1.09-.27-7.47-.05-9.15.23-.05.5-.16.76-.16,1.01,0,2.02-.05,3.03.05,1.73.17,2.66,1.34,2.52,3.05-.09,1.12-.66,1.91-1.72,2.26-.54.18-1.13.23-1.7.27-.62.04-1.24,0-2.04,0ZM47.18,121.28c-.02,1.3-.17,2.52.1,3.85.9,0,1.76.05,2.61-.01,1.08-.08,1.7-.72,1.78-1.73.09-1.11-.44-1.87-1.53-2.1-.94-.2-1.89-.15-2.96-.01Z"/>
      <path class="cls-1" d="M81.69,123.33c-.27.04-.44.06-.69.09-.09-.24-.17-.45-.25-.67-.46-1.21-1.12-1.66-2.39-1.66-1.16,0-1.96.57-2.32,1.61-.57,1.63-.6,3.32.03,4.93.61,1.58,2.03,1.79,3.34,1.38.58-.18.99-.57,1.21-1.15.12-.31.22-.62.33-.95h.66c.21,1.04-.23,1.78-.97,2.37-1.8,1.44-4.54.77-5.48-1.32-.17-.39-.33-.82-.35-1.24-.05-1.05-.12-2.12,0-3.16.28-2.46,2.32-3.82,4.64-3.19,1.45.4,2.07,1.17,2.22,2.95Z"/>
      <path class="cls-1" d="M104.9,126.85c.25.05.47.09.71.14-.05,1.49-.75,2.41-2.09,2.83-1.44.45-2.76.26-3.83-.9-.57-.62-.92-1.37-.96-2.2-.05-1.05-.1-2.12,0-3.16.24-2.38,2.24-3.75,4.51-3.21,1.16.27,2.47,1.25,2.32,2.93-.18.05-.39.1-.67.18-.12-.33-.21-.59-.3-.85-.3-.93-.97-1.38-1.92-1.49-.98-.11-1.81.13-2.4.97-.37.52-.6,1.1-.62,1.74-.02.86-.05,1.73,0,2.59.03.47.17.95.37,1.37.49,1.01,1.33,1.46,2.46,1.38,1.06-.08,1.82-.53,2.13-1.61.06-.22.16-.44.26-.72Z"/>
      <path class="cls-1" d="M6.33,126.91h.58c.06.12.15.2.14.28-.03,1.38-.78,2.23-2.05,2.63-1.38.44-2.66.27-3.73-.79-.6-.59-.99-1.33-1.04-2.16-.07-1.15-.13-2.31,0-3.45.26-2.24,2.19-3.56,4.34-3.1,1.59.34,2.3,1.16,2.48,2.96-.19.05-.4.11-.68.19-.12-.33-.22-.59-.3-.85-.3-.93-.97-1.39-1.91-1.49-.97-.11-1.83.1-2.4.96-.26.39-.52.86-.56,1.3-.08,1.14-.13,2.31,0,3.45.17,1.55,1.29,2.41,2.76,2.34,1.06-.06,1.84-.5,2.13-1.59.06-.22.15-.44.23-.67Z"/>
      <path class="cls-1" d="M146.24,121.09c-1.46.25-2.95-.03-4.48.17-.34,1.02-.18,2.05-.12,3.17,1.34.27,2.69-.05,4.05.22-.04.25-.08.42-.13.69-1.28.02-2.51.05-3.81.07-.32,1.19-.18,2.32-.1,3.47,1.56.47,3.19-.13,4.83.42-.19.23-.28.46-.4.47-1.76.14-3.52.12-5.25.02-.25-1.2-.29-7.55-.08-9.13.07-.06.14-.17.21-.17,1.63-.03,3.26-.06,4.89-.06.17,0,.34.22.51.34-.04.11-.08.21-.12.32Z"/>
      <path class="cls-1" d="M182.97,120.66c.02.46-.27.51-.56.52-.86.01-1.73,0-2.6.02-.47,0-.94.04-1.5.06-.16,1.06-.1,2.06-.04,3.12,1.3.39,2.66-.02,4.01.28-.03.23-.06.4-.1.68-.65.02-1.27.04-1.89.05-.62,0-1.24,0-1.9,0-.3,1.24-.19,2.37-.1,3.52,1.56.44,3.18-.15,4.88.44-.3.24-.45.48-.61.48-1.68.03-3.36.02-5.09.02-.07-.27-.19-.48-.19-.7-.01-2.69,0-5.38,0-8.07,0-.14.06-.27.1-.46.56-.33,1.2-.17,1.8-.19.67-.02,1.35-.04,2.02,0,.59.04,1.24-.22,1.75.26Z"/>
      <path class="cls-1" d="M209.78,59.45v-.74c1.25-.29,4.9-.29,6.04,0,.02.13.07.27.07.4,0,.09-.07.17-.16.36-.64.05-1.34.1-2.16.16-.26,2.19.04,4.39-.18,6.65-.36.03-.66.05-.97.08-.08-.22-.17-.35-.17-.48-.02-1.59-.01-3.17-.03-4.76,0-.47-.04-.94-.06-1.46-.84-.08-1.59-.14-2.37-.21Z"/>
      <path class="cls-1" d="M88.05,129.72c-.27.03-.45.05-.74.08-.05-.41-.12-.77-.13-1.13-.01-1.97,0-3.95-.01-5.92,0-.47-.05-.93-.08-1.49-1.08-.04-2.07-.09-2.99-.12-.25-.46-.09-.65.25-.71.23-.04.48-.03.72-.03,1.83,0,3.66,0,5.49.02.32,0,.71.02.61.6-.88.43-1.88,0-2.92.31-.04.31-.12.67-.13,1.04-.01,1.97,0,3.95-.01,5.92,0,.47-.04.94-.07,1.45Z"/>
      <path class="cls-1" d="M149.43,120.53c.22-.02.4-.03.62-.04.06.21.17.38.17.56.02,2.07.02,4.13.02,6.2,0,.52,0,1.05,0,1.5.53.41,1.02.29,1.49.3.91.02,1.83,0,2.74.03.29,0,.57.11.54.5-.89.34-3.87.4-5.62.1-.18-.95-.07-1.96-.09-2.95-.02-1.06-.02-2.12,0-3.17.02-1-.13-2.01.13-3.03Z"/>
      <path class="cls-1" d="M157.99,120.53c.28-.03.46-.04.68-.06.41.89.18,1.81.22,2.7.04.96,0,1.92,0,2.88v2.83c.44.06.8.16,1.16.16,1.01.03,2.02.01,3.03.03.3,0,.58.1.54.5-.88.34-3.82.41-5.58.11-.24-1.49-.1-3.02-.11-4.54-.01-1.52-.08-3.05.06-4.62Z"/>
      <path class="cls-1" d="M21.35,120.53c.15-.02.32-.05.45-.07.11.13.2.2.21.28.04.43.09.86.09,1.28,0,2.06,0,4.12,0,6.18v1.48c-.32.04-.53.07-.73.1-.27-1.23-.29-7.91-.03-9.26Z"/>
      <path class="cls-1" d="M94.91,129.78c-.17-.01-.35-.02-.57-.04-.05-.26-.14-.49-.14-.72-.01-2.5-.01-5.01,0-7.51,0-.24-.02-.51.08-.71.08-.17.32-.26.58-.44.11.28.22.44.24.61.17,2.08.05,7.84-.18,8.81Z"/>
    </g>
  </g>
</svg>